<svg xmlns="http://www.w3.org/2000/svg" viewBox="0 0 24 24" fill="currentColor" class="w-12 h-12 text-indigo-600">
  <path d="M3.464 8.464C4.636 7.293 6.175 6 8 6c1.825 0 3.364 1.293 4.536 2.464C13.707 9.636 15.246 11 17 11s3.364-1.293 4.536-2.464c.39-.39 1.024-.39 1.414 0 .39.39.39 1.024 0 1.414C21.778 11.122 20.239 13 17 13c-1.825 0-3.364-1.293-4.536-2.464C11.293 9.364 9.754 8 8 8s-3.364 1.293-4.536 2.464c-.39.39-1.024.39-1.414 0-.39-.39-.39-1.024 0-1.414z"/>
  <path d="M3.464 13.464C4.636 12.293 6.175 11 8 11c1.825 0 3.364 1.293 4.536 2.464C13.707 14.636 15.246 16 17 16s3.364-1.293 4.536-2.464c.39-.39 1.024-.39 1.414 0 .39.39.39 1.024 0 1.414C21.778 16.122 20.239 18 17 18c-1.825 0-3.364-1.293-4.536-2.464C11.293 14.364 9.754 13 8 13s-3.364 1.293-4.536 2.464c-.39.39-1.024.39-1.414 0-.39-.39-.39-1.024 0-1.414z"/>
</svg>

